<svg width="863" height="600" viewBox="0 0 863 600" fill="none" xmlns="http://www.w3.org/2000/svg">
<path d="M458.705 383.914L496.007 370.921L498.474 378.004L426.702 403.002L429.991 412.445L476.265 396.329L479.554 405.772L438.947 419.916L442.236 429.359L447.43 427.55L449.897 434.633L446.592 435.784L448.236 440.506L438.32 443.959L439.965 448.681L439.493 448.846L441.137 453.567L451.053 450.114L454.342 459.557L468.035 454.788L469.187 458.093C469.406 458.723 469.413 459.25 469.208 459.674L385.16 488.948C385.064 489.687 385.181 490.529 385.51 491.473L418.09 480.126C418.242 483.602 417.333 486.566 415.363 489.017L406.392 492.142C405.257 493.949 403.272 495.347 400.439 496.333L154.434 582.016C151.915 582.893 149.335 583.086 146.693 582.594L155.665 579.469C152.913 578.663 150.359 576.905 148.004 574.196L114.951 585.708C114.417 585.188 113.986 584.456 113.657 583.511L198.177 554.073L196.532 549.352L182.839 554.121L179.55 544.677L169.634 548.131L167.99 543.409L168.462 543.245L166.817 538.523L176.733 535.069L175.088 530.347L178.394 529.196L175.927 522.114L170.733 523.923L167.444 514.479L208.051 500.336L204.762 490.892L158.488 507.009L155.199 497.565L226.97 472.568L224.503 465.485L187.201 478.477L185.557 473.755L196.417 469.973L194.772 465.251L199.494 463.606L197.849 458.885L145.438 477.14L143.793 472.418L131.516 476.694L129.049 469.611L172.962 454.316L172.14 451.955L137.199 464.125L135.554 459.404L145.942 455.785L144.297 451.064L151.852 448.432L149.385 441.35L148.441 441.679L145.152 432.235L140.43 433.88L137.141 424.436L130.058 426.903L128.414 422.181L134.08 420.208L130.791 410.764L125.597 412.573L123.952 407.851L131.507 405.22L129.04 398.137L130.929 397.479L128.462 390.397L136.961 387.436L136.139 385.076L128.112 387.871L124.823 378.428L117.74 380.895L115.273 373.812L117.162 373.154L114.695 366.071L115.639 365.742L112.35 356.299L119.433 353.832L116.144 344.388L105.756 348.006L102.466 338.563L103.883 338.07L100.594 328.626L113.815 324.021L111.348 316.938L104.265 319.405L101.798 312.323L98.021 313.638L97.1987 311.277L117.03 304.37L114.563 297.287L149.505 285.117L147.86 280.396L133.695 285.329L132.05 280.608L86.2486 296.56L85.4264 294.199L90.6203 292.39L88.1535 285.307L88.6256 285.143L86.1588 278.06L87.5753 277.567L84.2861 268.123L83.814 268.288L79.7025 256.483L78.7581 256.812L77.278 252.563C76.8395 251.303 76.6679 250.304 76.7635 249.565L72.0417 251.21C70.9984 244.161 73.9394 239.43 80.8647 237.018L323.093 152.651C330.333 150.129 335.576 152.009 338.823 158.291L343.545 156.646C344.079 157.166 344.565 158.056 345.004 159.315L346.484 163.564L347.428 163.235L351.54 175.04L352.012 174.876L355.301 184.319L353.885 184.813L356.351 191.895L355.879 192.06L358.346 199.142L353.152 200.951L353.974 203.312L399.776 187.36L401.42 192.082L415.586 187.148L417.23 191.87L382.289 204.04L384.756 211.122L364.924 218.03L365.747 220.39L369.524 219.075L371.991 226.157L379.074 223.691C379.541 227.058 379.261 229.802 378.235 231.924L365.014 236.529C363.798 240.13 361.143 242.643 357.051 244.068L215.397 293.406L217.206 298.6L215.79 299.093L219.079 308.536L229.467 304.918L232.756 314.362L225.673 316.829L227.647 322.495L358.913 276.776C362.375 275.57 365.804 275.787 369.2 277.428L368.255 277.757C370.377 278.783 372.301 280.76 374.027 283.689L372.611 284.182L375.078 291.265L382.16 288.798L385.45 298.242L393.477 295.446L394.299 297.807L385.8 300.767L388.267 307.85L386.378 308.507L388.845 315.59L381.29 318.221L382.934 322.943L388.128 321.134L391.418 330.578L385.751 332.551L387.396 337.273L394.479 334.806L397.768 344.25L402.49 342.605L403.147 344.494C404.354 347.957 404.444 350.749 403.418 352.871L404.362 352.542C403.05 356.882 400.19 359.819 395.783 361.354L264.517 407.074L265.175 408.962L257.62 411.594L259.265 416.316L248.877 419.934L250.522 424.655L285.463 412.485L286.285 414.846L242.372 430.141L244.839 437.224L257.116 432.948L258.761 437.67L311.173 419.415L312.653 423.664L458.084 373.011C459.658 372.463 460.972 372.182 462.026 372.168L456.832 373.977C460.309 373.825 463.218 374.576 465.559 376.232L454.699 380.014C456.616 381.464 457.951 382.764 458.705 383.914ZM778.896 312.102L759.537 318.844L756.932 325.046L829.175 299.884C828.97 300.309 828.765 300.733 828.56 301.158C828.355 301.582 828.047 302.219 827.637 303.067L716.202 341.88C715.177 344.002 713.993 346.179 712.653 348.41C711.627 350.533 710.444 352.71 709.104 354.941L743.573 342.936L739.079 349.796L803.295 327.429L800.34 331.106L772.482 340.809C772.276 341.233 771.757 341.767 770.922 342.411C770.402 342.945 769.937 343.637 769.526 344.485L737.89 355.504L727.136 367.192L745.551 360.778C742.117 364.092 738.628 367.248 735.084 370.248C731.43 372.932 727.674 375.829 723.815 378.938L706.816 384.858C697.21 391.734 686.385 398.151 674.342 404.111L676.703 403.288C671.886 405.672 666.856 407.953 661.614 410.132C656.373 412.311 651.076 414.332 645.725 416.196C639.744 418.279 633.708 420.205 627.617 421.973C621.842 423.632 616.168 425.078 610.598 426.313L608.709 426.97C594.625 430.111 581.684 431.971 569.884 432.551L586.883 426.631C581.613 426.701 576.712 426.82 572.182 426.986C567.541 426.837 562.846 426.531 558.096 426.068L539.681 432.482C537.039 431.99 534.452 431.656 531.919 431.479C529.277 430.987 526.635 430.495 523.993 430.004L556.101 418.821L551.502 417.775L579.36 408.072C578.826 407.552 578.189 407.245 577.45 407.149C576.711 407.054 575.972 406.958 575.233 406.863L511.016 429.229C509.538 429.038 508.162 428.635 506.889 428.019C505.615 427.404 504.397 426.946 503.233 426.645L468.292 438.815C466.17 437.789 464.048 436.764 461.926 435.738C459.489 434.822 457.209 433.851 455.087 432.825L566.521 394.013C565.987 393.493 565.508 393.13 565.084 392.925C564.659 392.72 564.235 392.515 563.81 392.31L491.567 417.472C489.869 416.651 488.062 415.516 486.145 414.066L505.504 407.323C504.97 406.803 504.491 406.441 504.067 406.235C503.642 406.03 503.218 405.825 502.793 405.62L561.816 385.063L555.099 379.46L525.824 389.656L523.585 387.789L457.008 410.978C456.255 409.828 455.399 408.891 454.44 408.166C453.372 407.126 452.304 406.086 451.236 405.046L482.872 394.027L477.572 387.931L466.24 391.878L464.473 389.846L469.667 388.037C468.914 386.888 468.215 385.896 467.571 385.061C466.818 383.912 466.065 382.762 465.311 381.613L461.534 382.928C461.095 381.669 460.554 380.622 459.911 379.787C459.472 378.528 458.876 377.324 458.123 376.174L454.345 377.49C453.907 376.231 453.366 375.184 452.722 374.349C452.393 373.405 452.009 372.303 451.571 371.044L451.406 370.572L450.934 370.736C450.715 370.107 450.55 369.635 450.441 369.32C450.646 368.895 450.694 368.526 450.584 368.211L461.444 364.428C461.264 358.844 463.692 355.174 468.728 353.42L558.443 322.173C563.479 320.419 567.476 319.733 570.433 320.115C573.39 320.497 576.88 321.399 580.905 322.821L570.045 326.603L570.682 326.911C571.421 327.006 572.003 327.157 572.427 327.362C573.167 327.457 573.748 327.608 574.173 327.813L574.645 327.648C579.834 329.371 585.693 329.978 592.222 329.468L596.471 327.988C601.002 327.822 606.73 326.533 613.655 324.121C617.748 322.696 621.47 321.223 624.823 319.702C628.176 318.181 631.002 316.667 633.301 315.16L631.885 315.654C638.577 311.558 642.319 307.608 643.111 303.802L642.167 304.131C642.358 302.652 642.398 301.756 642.289 301.441L647.011 299.796L646.825 297.743C645.838 294.91 643.859 292.776 640.888 291.34L637.111 292.655C633.291 290.809 627.432 290.202 619.534 290.835L618.118 291.329C614.956 291.371 611.376 291.735 607.38 292.421C603.273 292.793 598.592 293.541 593.336 294.665L590.503 295.652L570.157 299.562C567.844 300.014 565.531 300.467 563.218 300.92C561.219 301.263 559.064 301.661 556.75 302.113C543.077 304.405 529.546 305.588 516.159 305.662L507.66 308.622C502.705 308.583 498.064 308.435 493.739 308.176L487.128 310.479C485.335 310.397 483.542 310.316 481.749 310.235C479.846 309.838 477.943 309.442 476.04 309.046L434.96 323.354C432.318 322.862 429.888 322.473 427.671 322.187C425.344 321.585 423.016 320.984 420.689 320.383L508.514 289.793C506.502 289.083 504.544 288.529 502.641 288.133C500.944 287.312 499.089 286.546 497.076 285.835L403.112 318.563C401.949 318.262 400.888 317.749 399.929 317.024C398.656 316.409 397.595 315.896 396.746 315.485L421.299 306.934C417.37 304.773 413.598 302.557 409.983 300.286L417.066 297.819L412.588 294.084L367.259 309.872C366.725 309.352 366.246 308.989 365.821 308.784C365.397 308.579 365.13 308.319 365.02 308.004L472.677 270.508C471.609 269.468 470.596 268.586 469.637 267.86C468.569 266.821 467.501 265.781 466.433 264.741L383.801 293.521L378.501 287.425L445.079 264.237L443.312 262.205L423.48 269.112L421.714 267.08L431.157 263.791C430.938 263.161 430.616 262.744 430.192 262.539C430.082 262.224 429.973 261.909 429.863 261.594L427.974 262.252L424.913 258.024L422.08 259.01L419.963 254.453L419.019 254.782L418.197 252.421L403.087 257.684C402.553 257.164 402.121 256.432 401.792 255.487C401.463 254.543 401.189 253.756 400.97 253.126L387.277 257.896L385.16 253.338L438.989 234.59C438.455 234.07 438.023 233.338 437.694 232.394C437.365 231.449 437.091 230.662 436.872 230.033L444.427 227.401L444.262 226.929C443.714 225.355 443.166 223.781 442.618 222.207C442.069 220.633 441.733 219.162 441.61 217.793L421.306 224.865C421.182 223.496 420.956 222.34 420.627 221.395C420.188 220.136 419.907 218.822 419.783 217.453L452.836 205.941C452.617 205.312 452.452 204.84 452.343 204.525C452.548 204.1 452.596 203.731 452.486 203.416L418.961 215.093C418.933 212.985 418.7 211.301 418.261 210.042L413.067 211.851L412.839 206.636L404.812 209.431C404.55 205.64 404.556 202.108 404.828 198.837L408.605 197.521L408.85 192.141L414.044 190.332L415.826 181.77L411.104 183.414C411.61 181.826 412.014 180.45 412.314 179.287C412.82 177.699 413.168 176.165 413.359 174.687L409.582 176.003L412.781 166.946L422.697 163.493C422.793 162.753 422.943 162.172 423.148 161.747C423.353 161.323 423.558 160.898 423.763 160.474L410.542 165.079C411.363 163.381 412.238 161.841 413.169 160.458C413.989 158.76 414.81 157.062 415.63 155.365L423.185 152.733C424.526 150.502 425.866 148.27 427.207 146.038C428.438 143.492 429.936 141.205 431.701 139.178L440.2 136.218C441.65 134.301 443.155 132.542 444.715 130.939C446.165 129.022 447.773 127.051 449.537 125.024L448.121 125.517C448.531 124.669 449.154 123.922 449.988 123.279C450.823 122.635 451.5 122.046 452.02 121.512L445.41 123.814C445.82 122.965 446.443 122.219 447.277 121.575C448.112 120.932 448.947 120.288 449.782 119.644L445.06 121.289C448.809 117.865 452.77 114.544 456.944 111.326C461.432 107.998 465.976 104.827 470.574 101.813L477.656 99.3465C484.348 95.2509 491.464 91.3604 499.005 87.6751C506.861 83.8801 515.196 80.4477 524.01 77.3778C540.693 71.567 557.036 67.8163 573.037 66.126L566.426 68.4284C577.267 67.1234 588.121 66.8725 598.99 67.6756L603.24 66.1954C604.294 66.1813 605.348 66.1672 606.402 66.153C607.456 66.1389 608.565 66.2822 609.728 66.5828L616.339 64.2804C617.078 64.3759 617.975 64.4166 619.029 64.4025C620.083 64.3884 621.034 64.5865 621.883 64.9967L623.3 64.5034C625.942 64.995 628.426 65.5415 630.754 66.1429C633.286 66.3197 635.716 66.7088 638.043 67.3101L630.016 70.1059C632.973 70.488 635.725 71.2944 638.271 72.5253C641.023 73.3318 643.617 74.193 646.054 75.1092L638.971 77.576L648.993 82.0274L662.214 77.4226L665.397 78.9612L655.482 82.4148C657.179 83.2354 658.72 84.1108 660.102 85.041C661.691 85.5468 663.176 86.2648 664.559 87.1951L668.336 85.8794L676.469 90.9886L680.719 89.5085L687.435 95.111L682.242 96.9201C683.734 98.1651 685.069 99.4649 686.247 100.82L682.47 102.135C683.962 103.38 685.297 104.68 686.475 106.035C687.653 107.389 688.831 108.744 690.008 110.099L698.035 107.303C699.323 108.972 700.186 110.437 700.624 111.696L706.29 109.722C706.825 110.242 707.256 110.974 707.585 111.919C707.914 112.863 708.345 113.595 708.879 114.115L742.404 102.439L743.226 104.8L713.007 115.325C713.76 116.474 714.521 118.151 715.288 120.354L715.946 122.243L698.475 128.328C699.19 134.433 697.029 138.362 691.992 140.116L597.556 173.008C593.149 174.543 589.31 175.174 586.038 174.902C583.081 174.52 579.748 173.563 576.038 172.032L574.292 171.581L591.763 165.496C589.75 164.785 587.108 164.293 583.837 164.021C580.455 163.433 576.452 163.593 571.825 164.498L554.827 170.418C548.545 173.665 544.803 177.616 543.601 182.27L563.904 175.199C563.618 177.416 563.803 179.469 564.461 181.358C565.009 182.932 565.605 184.136 566.249 184.971L559.166 187.438C560.029 188.902 561.837 190.038 564.588 190.844L511.232 209.428C513.669 210.344 517.522 210.767 522.792 210.696L536.486 205.927C539.333 205.994 542.652 205.897 546.444 205.635C550.441 204.949 554.595 204.208 558.906 203.412L574.016 198.15C576.644 197.587 579.429 196.97 582.372 196.298C585.315 195.626 588.469 195.057 591.837 194.59L592.309 194.426C597.879 193.191 603.348 192.169 608.713 191.36C613.969 190.235 618.965 189.377 623.701 188.787L626.534 187.8C630.53 187.114 634.267 186.695 637.744 186.543C641.426 185.966 645.005 185.602 648.482 185.45L650.371 184.792C652.054 184.559 653.581 184.38 654.949 184.256C656.318 184.133 657.742 184.166 659.22 184.357L650.249 187.482C651.618 187.358 652.829 187.289 653.883 187.275C655.252 187.151 656.675 187.185 658.154 187.376L677.985 180.469C679.039 180.455 680.093 180.441 681.147 180.426C682.516 180.303 683.782 180.391 684.946 180.692L618.369 203.88C625.541 204.206 631.4 204.813 635.945 205.7L718.577 176.92C720.904 177.521 723.231 178.123 725.558 178.724C727.776 179.011 729.891 179.509 731.904 180.22L624.247 217.717C624.986 217.812 625.725 217.908 626.464 218.003C627.203 218.099 627.84 218.407 628.374 218.926L673.703 203.139C674.867 203.439 676.086 203.897 677.359 204.513C678.632 205.128 679.693 205.641 680.542 206.051L673.459 208.518C677.594 210.255 681.366 212.471 684.776 215.166L660.222 223.718C661.071 224.128 661.975 224.696 662.933 225.421C663.892 226.146 664.638 226.768 665.172 227.288L758.664 194.726L765.38 200.328L677.555 230.917C678.623 231.957 679.691 232.997 680.759 234.037C681.718 234.762 682.573 235.699 683.327 236.849L723.934 222.705L726.995 226.934L733.606 224.631L736.667 228.86L745.166 225.9C746.234 226.94 747.097 228.404 747.755 230.293C748.618 231.757 749.481 233.221 750.344 234.685L752.461 239.243L755.294 238.256C755.828 238.776 756.26 239.508 756.588 240.452C756.917 241.397 757.191 242.184 757.411 242.813L758.827 242.32L761.294 249.403L765.544 247.923L766.037 249.339C766.476 250.598 766.757 251.912 766.881 253.281C767.319 254.54 767.813 255.957 768.361 257.531L763.639 259.175L764.461 261.536L765.406 261.207C765.844 262.466 766.125 263.78 766.249 265.149C766.578 266.093 766.804 267.25 766.928 268.619L768.345 268.125L769.395 275.701L773.172 274.386C773.296 275.755 773.42 277.123 773.544 278.492C773.558 279.546 773.469 280.812 773.278 282.291L768.084 284.1C768.194 284.415 768.146 284.784 767.941 285.209C768.051 285.523 768.215 285.996 768.435 286.625L779.767 282.678L779.401 290.748L747.765 301.766C747.888 303.135 747.697 304.614 747.192 306.202C746.891 307.365 746.645 308.686 746.454 310.165L813.031 286.976L812.437 289.83L841.24 279.798C841.049 281.277 840.701 282.81 840.195 284.398C839.894 285.562 839.491 286.938 838.985 288.526L779.963 309.083C779.758 309.507 779.552 309.932 779.347 310.356C779.142 310.781 778.992 311.362 778.896 312.102ZM587.879 158.906L602.045 153.973C600.991 153.987 599.834 154.213 598.575 154.652C597.631 154.98 596.529 155.364 595.27 155.803C594.011 156.241 592.752 156.68 591.492 157.118C590.233 157.557 589.029 158.153 587.879 158.906Z" fill="#242323"/>
</svg>
